# xmcd
#
# Track frame offsets: 
#        150
#        24157
#        40442
#        53442
#        64855
#        80370
#        92405
#        106217
#        118475
#        129235
#
# Disc length: 1958 seconds
#
# Revision: 2
# Processed by: cddbd v1.5.2PL0 Copyright (c) Steve Scherf et al.
# Submitted via: ExactAudioCopy v0.99pb5
#
DISCID=7607a40a
DTITLE=Texas Tornados and Sir Doug - Texas Rock For Country Rollers
DYEAR=1976
DGENRE=Country
TTITLE0=I Love The Way You Love (The Way I Love You)
TTITLE1=Cowboy Peyton Place
TTITLE2=Give Back The Key To My Heart
TTITLE3=Wolverton Mountain
TTITLE4=Texas Ranger Man
TTITLE5=Float Away
TTITLE6=I'm Missing You
TTITLE7=Gene Thomas Medley: Sometimes/Cryin' Inside
TTITLE8=Country Groove
TTITLE9=You Can't Hide A Redneck (Under That Hippy Hair)
EXTD=YEAR: 1976 ID3G: 2
EXTT0=
EXTT1=
EXTT2=
EXTT3=
EXTT4=
EXTT5=
EXTT6=
EXTT7=
EXTT8=
EXTT9=
PLAYORDER=
